<svg preserveAspectRatio="none" width="100%" height="100%" overflow="visible" style="display: block;" viewBox="0 0 13.125 14.4375" fill="none" xmlns="http://www.w3.org/2000/svg">
<path id="Vector" d="M4.125 0.5625C4.125 0.413316 4.06574 0.270242 3.96025 0.164752C3.85476 0.0592632 3.71168 0 3.5625 0C3.41332 0 3.27024 0.0592632 3.16475 0.164752C3.05926 0.270242 3 0.413316 3 0.5625V1.3125H1.6875C1.23995 1.3125 0.810725 1.49029 0.494257 1.80676C0.17779 2.12323 0 2.55245 0 3V12.75C0 13.1976 0.17779 13.6268 0.494257 13.9432C0.810725 14.2597 1.23995 14.4375 1.6875 14.4375H11.4375C11.8851 14.4375 12.3143 14.2597 12.6307 13.9432C12.9472 13.6268 13.125 13.1976 13.125 12.75V3C13.125 2.55245 12.9472 2.12323 12.6307 1.80676C12.3143 1.49029 11.8851 1.3125 11.4375 1.3125H10.125V0.5625C10.125 0.413316 10.0657 0.270242 9.96025 0.164752C9.85476 0.0592632 9.71168 0 9.5625 0C9.41332 0 9.27024 0.0592632 9.16475 0.164752C9.05926 0.270242 9 0.413316 9 0.5625V1.3125H4.125V0.5625ZM12 4.6875H1.125V3C1.125 2.85082 1.18426 2.70774 1.28975 2.60225C1.39524 2.49676 1.53832 2.4375 1.6875 2.4375H11.4375C11.5867 2.4375 11.7298 2.49676 11.8352 2.60225C11.9407 2.70774 12 2.85082 12 3V4.6875ZM1.125 5.8125H12V12.75C12 12.8992 11.9407 13.0423 11.8352 13.1477C11.7298 13.2532 11.5867 13.3125 11.4375 13.3125H1.6875C1.53832 13.3125 1.39524 13.2532 1.28975 13.1477C1.18426 13.0423 1.125 12.8992 1.125 12.75V5.8125Z" fill="var(--fill-0, white)"/>
</svg>
