<svg preserveAspectRatio="none" width="100%" height="100%" overflow="visible" style="display: block;" viewBox="0 0 7.2225 4.2" fill="none" xmlns="http://www.w3.org/2000/svg">
<path id="Vector" d="M0 0.6C0 0.44087 0.063214 0.288258 0.175736 0.175736C0.288258 0.0632144 0.44087 0 0.6 0H0.6075C0.76663 0 0.919242 0.0632144 1.03176 0.175736C1.14429 0.288258 1.2075 0.44087 1.2075 0.6C1.2075 0.75913 1.14429 0.911742 1.03176 1.02426C0.919242 1.13679 0.76663 1.2 0.6075 1.2H0.6C0.521207 1.2 0.443185 1.18448 0.37039 1.15433C0.297594 1.12417 0.231451 1.07998 0.175736 1.02426C0.120021 0.968549 0.0758251 0.902406 0.0456723 0.82961C0.0155195 0.756815 0 0.678793 0 0.6ZM0.6 3C0.44087 3 0.288258 3.06321 0.175736 3.17574C0.063214 3.28826 0 3.44087 0 3.6C0 3.75913 0.063214 3.91174 0.175736 4.02426C0.288258 4.13679 0.44087 4.2 0.6 4.2H0.6075C0.76663 4.2 0.919242 4.13679 1.03176 4.02426C1.14429 3.91174 1.2075 3.75913 1.2075 3.6C1.2075 3.44087 1.14429 3.28826 1.03176 3.17574C0.919242 3.06321 0.76663 3 0.6075 3H0.6ZM3.0075 0.6C3.0075 0.44087 3.07071 0.288258 3.18324 0.175736C3.29576 0.0632144 3.44837 0 3.6075 0H3.615C3.77413 0 3.92674 0.0632144 4.03926 0.175736C4.15179 0.288258 4.215 0.44087 4.215 0.6C4.215 0.75913 4.15179 0.911742 4.03926 1.02426C3.92674 1.13679 3.77413 1.2 3.615 1.2H3.6075C3.52871 1.2 3.45069 1.18448 3.37789 1.15433C3.30509 1.12417 3.23895 1.07998 3.18324 1.02426C3.12752 0.968549 3.08333 0.902406 3.05317 0.82961C3.02302 0.756815 3.0075 0.678793 3.0075 0.6ZM3.6075 3C3.44837 3 3.29576 3.06321 3.18324 3.17574C3.07071 3.28826 3.0075 3.44087 3.0075 3.6C3.0075 3.75913 3.07071 3.91174 3.18324 4.02426C3.29576 4.13679 3.44837 4.2 3.6075 4.2H3.615C3.77413 4.2 3.92674 4.13679 4.03926 4.02426C4.15179 3.91174 4.215 3.75913 4.215 3.6C4.215 3.44087 4.15179 3.28826 4.03926 3.17574C3.92674 3.06321 3.77413 3 3.615 3H3.6075ZM6.015 0.6C6.015 0.44087 6.07821 0.288258 6.19074 0.175736C6.30326 0.0632144 6.45587 0 6.615 0H6.6225C6.78163 0 6.93424 0.0632144 7.04676 0.175736C7.15929 0.288258 7.2225 0.44087 7.2225 0.6C7.2225 0.75913 7.15929 0.911742 7.04676 1.02426C6.93424 1.13679 6.78163 1.2 6.6225 1.2H6.615C6.53621 1.2 6.45819 1.18448 6.38539 1.15433C6.31259 1.12417 6.24645 1.07998 6.19074 1.02426C6.13502 0.968549 6.09083 0.902406 6.06067 0.82961C6.03052 0.756815 6.015 0.678793 6.015 0.6ZM6.615 3C6.45587 3 6.30326 3.06321 6.19074 3.17574C6.07821 3.28826 6.015 3.44087 6.015 3.6C6.015 3.75913 6.07821 3.91174 6.19074 4.02426C6.30326 4.13679 6.45587 4.2 6.615 4.2H6.6225C6.78163 4.2 6.93424 4.13679 7.04676 4.02426C7.15929 3.91174 7.2225 3.75913 7.2225 3.6C7.2225 3.44087 7.15929 3.28826 7.04676 3.17574C6.93424 3.06321 6.78163 3 6.6225 3H6.615Z" fill="var(--fill-0, white)"/>
</svg>
