<svg preserveAspectRatio="none" width="100%" height="100%" overflow="visible" style="display: block;" viewBox="0 0 20 24" fill="none" xmlns="http://www.w3.org/2000/svg">
<g id="Icon">
<path id="Vector" d="M5.83301 3.66666V11.2917C5.12467 11.4861 4.53092 11.875 4.05176 12.4583C3.57259 13.0417 3.33301 13.7222 3.33301 14.5V20.3333H4.99967V14.5H5.83301V20.3333H7.49967V14.5H8.33301V20.3333H9.99967V14.5C9.99967 13.7222 9.76009 13.0417 9.28092 12.4583C8.80176 11.875 8.20801 11.4861 7.49967 11.2917V3.66666H5.83301ZM14.1663 3.66666V10.3333H11.6663V16.1667C11.6663 17.3194 12.0726 18.3021 12.8851 19.1146C13.6976 19.9271 14.6802 20.3333 15.833 20.3333V3.66666H14.1663Z" fill="var(--fill-0, #B99563)"/>
</g>
</svg>
