<svg preserveAspectRatio="none" width="100%" height="100%" overflow="visible" style="display: block;" viewBox="0 0 20 24" fill="none" xmlns="http://www.w3.org/2000/svg">
<g id="Icon">
<path id="Vector" d="M5.83366 15.3333C5.37533 15.3333 4.98296 15.4965 4.65658 15.8229C4.33019 16.1493 4.16699 16.5416 4.16699 17C4.16699 17.4583 4.33019 17.8507 4.65658 18.177C4.98296 18.5034 5.37533 18.6666 5.83366 18.6666C6.29199 18.6666 6.68435 18.5034 7.01074 18.177C7.33713 17.8507 7.50033 17.4583 7.50033 17C7.50033 16.5416 7.33713 16.1493 7.01074 15.8229C6.68435 15.4965 6.29199 15.3333 5.83366 15.3333ZM3.33366 3.66663C2.87533 3.66663 2.48296 3.82982 2.15658 4.15621C1.83019 4.4826 1.66699 4.87496 1.66699 5.33329V12H4.16699V12.625C4.16699 13.1527 4.34755 13.5972 4.70866 13.9583C5.06977 14.3194 5.51421 14.5 6.04199 14.5C6.31977 14.5 6.57672 14.4444 6.81283 14.3333C7.04894 14.2222 7.26422 14.0694 7.45866 13.875L8.62533 12.5833C8.72255 12.4722 8.82672 12.368 8.93783 12.2708C9.04894 12.1736 9.16699 12.0833 9.29199 12H18.3337V5.33329C18.3337 4.87496 18.1705 4.4826 17.8441 4.15621C17.5177 3.82982 17.1253 3.66663 16.667 3.66663H3.33366ZM15.0003 13.6666L15.0837 14.1666C15.1531 14.5138 15.1288 14.8507 15.0107 15.177C14.8927 15.5034 14.7087 15.7916 14.4587 16.0416C14.0559 16.4444 13.7573 16.9132 13.5628 17.4479C13.3684 17.9826 13.3059 18.5416 13.3753 19.125L13.417 19.5H15.0003L14.917 19C14.8614 18.6666 14.8857 18.3368 14.9899 18.0104C15.0941 17.684 15.2642 17.4027 15.5003 17.1666C15.917 16.75 16.226 16.2708 16.4274 15.7291C16.6288 15.1875 16.6948 14.625 16.6253 14.0416L16.5837 13.6666H15.0003ZM11.667 13.6666L11.7503 14.1666C11.8198 14.5138 11.7955 14.8507 11.6774 15.177C11.5594 15.5034 11.3753 15.7916 11.1253 16.0416C10.7225 16.4444 10.4239 16.9132 10.2295 17.4479C10.035 17.9826 9.97255 18.5416 10.042 19.125L10.0837 19.5H11.667L11.5837 19C11.5142 18.6666 11.535 18.3368 11.6462 18.0104C11.7573 17.684 11.9309 17.4027 12.167 17.1666C12.5837 16.75 12.8927 16.2708 13.0941 15.7291C13.2955 15.1875 13.3614 14.625 13.292 14.0416L13.2503 13.6666H11.667ZM14.167 5.33329H15.8337V10.3333H14.167V5.33329ZM10.8337 5.33329H12.5003V10.3333H10.8337V5.33329ZM7.50033 5.33329H9.16699V10.3333H7.50033V5.33329ZM4.16699 5.33329H5.83366V10.3333H4.16699V5.33329Z" fill="var(--fill-0, #B99563)"/>
</g>
</svg>
