<svg preserveAspectRatio="none" width="100%" height="100%" overflow="visible" style="display: block;" viewBox="0 0 20 24" fill="none" xmlns="http://www.w3.org/2000/svg">
<g id="Icon">
<path id="Vector" d="M6.66667 4.5V6.16667H9.16667V9.58333C7.97222 9.77778 6.97917 10.3333 6.1875 11.25C5.39583 12.1667 5 13.25 5 14.5V19.5H15V14.5C15 13.25 14.6042 12.1667 13.8125 11.25C13.0208 10.3333 12.0278 9.77778 10.8333 9.58333V6.16667H13.3333V4.5H6.66667ZM10 11.1667C10.7778 11.1667 11.4583 11.4028 12.0417 11.875C12.625 12.3472 13.0139 12.9444 13.2083 13.6667H6.79167C6.98611 12.9444 7.375 12.3472 7.95833 11.875C8.54167 11.4028 9.22222 11.1667 10 11.1667ZM6.66667 15.3333H13.3333V17.8333H6.66667V15.3333Z" fill="var(--fill-0, #B99563)"/>
</g>
</svg>
