<svg preserveAspectRatio="none" width="100%" height="100%" overflow="visible" style="display: block;" viewBox="0 0 29 29.0113" fill="none" xmlns="http://www.w3.org/2000/svg">
<g id="Group">
<path id="Vector" d="M14.5085 2.61266C18.385 2.61266 18.844 2.62967 20.3686 2.69767C21.7854 2.76002 22.5505 2.99805 23.0606 3.1964C23.735 3.4571 24.2224 3.77448 24.7268 4.27887C25.2369 4.78894 25.5486 5.27067 25.8093 5.94509C26.0076 6.45515 26.2457 7.22591 26.308 8.63709C26.376 10.1673 26.393 10.6263 26.393 14.4972C26.393 18.3737 26.376 18.8327 26.308 20.3572C26.2457 21.7741 26.0076 22.5392 25.8093 23.0492C25.5486 23.7237 25.2312 24.2111 24.7268 24.7155C24.2167 25.2255 23.735 25.5372 23.0606 25.7979C22.5505 25.9963 21.7798 26.2343 20.3686 26.2967C18.8384 26.3647 18.3793 26.3817 14.5085 26.3817C10.632 26.3817 10.173 26.3647 8.64843 26.2967C7.23158 26.2343 6.46648 25.9963 5.95642 25.7979C5.282 25.5372 4.79461 25.2199 4.29021 24.7155C3.78014 24.2054 3.46844 23.7237 3.20774 23.0492C3.00938 22.5392 2.77135 21.7684 2.70901 20.3572C2.641 18.827 2.624 18.368 2.624 14.4972C2.624 10.6207 2.641 10.1616 2.70901 8.63709C2.77135 7.22025 3.00938 6.45515 3.20774 5.94509C3.46844 5.27067 3.78581 4.78327 4.29021 4.27887C4.80027 3.76881 5.282 3.4571 5.95642 3.1964C6.46648 2.99805 7.23725 2.76002 8.64843 2.69767C10.173 2.62967 10.632 2.61266 14.5085 2.61266ZM14.5085 0C10.5697 0 10.0766 0.0170021 8.52941 0.0850107C6.98788 0.153019 5.92808 0.402384 5.00997 0.759429C4.05218 1.13348 3.24174 1.62654 2.43697 2.43697C1.62654 3.24174 1.13348 4.05218 0.759429 5.0043C0.402384 5.92808 0.153019 6.98222 0.0850108 8.52374C0.0170022 10.0766 0 10.5697 0 14.5085C0 18.4473 0.0170022 18.9404 0.0850108 20.4876C0.153019 22.0291 0.402384 23.0889 0.759429 24.007C1.13348 24.9648 1.62654 25.7753 2.43697 26.58C3.24174 27.3848 4.05218 27.8835 5.0043 28.2519C5.92808 28.6089 6.98222 28.8583 8.52374 28.9263C10.0709 28.9943 10.564 29.0113 14.5028 29.0113C18.4417 29.0113 18.9347 28.9943 20.4819 28.9263C22.0235 28.8583 23.0833 28.6089 24.0014 28.2519C24.9535 27.8835 25.7639 27.3848 26.5687 26.58C27.3735 25.7753 27.8722 24.9648 28.2406 24.0127C28.5976 23.0889 28.847 22.0348 28.915 20.4933C28.983 18.9461 29 18.453 29 14.5142C29 10.5753 28.983 10.0823 28.915 8.53508C28.847 6.99355 28.5976 5.93375 28.2406 5.01563C27.8835 4.05218 27.3905 3.24174 26.58 2.43697C25.7753 1.63221 24.9648 1.13348 24.0127 0.765097C23.0889 0.408052 22.0348 0.158687 20.4933 0.0906781C18.9404 0.0170022 18.4473 0 14.5085 0Z" fill="var(--fill-0, #436C5E)"/>
<path id="Vector_2" d="M14.5085 7.05589C10.394 7.05589 7.05589 10.394 7.05589 14.5085C7.05589 18.623 10.394 21.9611 14.5085 21.9611C18.623 21.9611 21.9611 18.623 21.9611 14.5085C21.9611 10.394 18.623 7.05589 14.5085 7.05589ZM14.5085 19.3428C11.8392 19.3428 9.67422 17.1778 9.67422 14.5085C9.67422 11.8392 11.8392 9.67422 14.5085 9.67422C17.1778 9.67422 19.3428 11.8392 19.3428 14.5085C19.3428 17.1778 17.1778 19.3428 14.5085 19.3428Z" fill="var(--fill-0, #436C5E)"/>
<path id="Vector_3" d="M23.9957 6.76154C23.9957 7.725 23.2136 8.50143 22.2558 8.50143C21.2924 8.50143 20.5159 7.71933 20.5159 6.76154C20.5159 5.79809 21.298 5.02166 22.2558 5.02166C23.2136 5.02166 23.9957 5.80376 23.9957 6.76154Z" fill="var(--fill-0, #436C5E)"/>
</g>
</svg>
